HIERARCHY
ROOT reference
{
  OFFSET 0 0 0
  CHANNELS 6 Xposition Yposition Zposition Zrotation Xrotation Yrotation
  JOINT Hips
  {
    OFFSET 27.2487 89.8941 63.0569
    CHANNELS 6 Xposition Yposition Zposition Zrotation Xrotation Yrotation
    JOINT Spine
    {
      OFFSET 0 8.25043 0
      CHANNELS 6 Xposition Yposition Zposition Zrotation Xrotation Yrotation
      JOINT Spine1
      {
        OFFSET 0 26.9735 0
        CHANNELS 6 Xposition Yposition Zposition Zrotation Xrotation Yrotation
        JOINT Neck
        {
          OFFSET 0 26.8627 2.44206
          CHANNELS 6 Xposition Yposition Zposition Zrotation Xrotation Yrotation
          JOINT Head
          {
            OFFSET 0 14.0861 -2.0123
            CHANNELS 6 Xposition Yposition Zposition Zrotation Xrotation Yrotation
            End Site
            {
              OFFSET 0 25.1537 0
            }
          }
        }
        JOINT LeftShoulder
        {
          OFFSET 4.03461 23.8974 -0.31355
          CHANNELS 6 Xposition Yposition Zposition Zrotation Xrotation Yrotation
          JOINT LeftArm
          {
            OFFSET 14.6104 0 0
            CHANNELS 6 Xposition Yposition Zposition Zrotation Xrotation Yrotation
            JOINT LeftForeArm
            {
              OFFSET 28.8903 0 0
              CHANNELS 6 Xposition Yposition Zposition Zrotation Xrotation Yrotation
              JOINT LeftHand
              {
                OFFSET 28.8168 0 0
                CHANNELS 6 Xposition Yposition Zposition Zrotation Xrotation Yrotation
                End Site
                {
                  OFFSET 15.0922 0 0
                }
              }
            }
          }
        }
        JOINT RightShoulder
        {
          OFFSET -4.01401 23.8974 -0.31355
          CHANNELS 6 Xposition Yposition Zposition Zrotation Xrotation Yrotation
          JOINT RightArm
          {
            OFFSET -14.6104 0 0
            CHANNELS 6 Xposition Yposition Zposition Zrotation Xrotation Yrotation
            JOINT RightForeArm
            {
              OFFSET -28.8903 0 0
              CHANNELS 6 Xposition Yposition Zposition Zrotation Xrotation Yrotation
              JOINT RightHand
              {
                OFFSET -28.8168 0 0
                CHANNELS 6 Xposition Yposition Zposition Zrotation Xrotation Yrotation
                End Site
                {
                  OFFSET -15.0922 0 0
                }
              }
            }
          }
        }
      }
    }
    JOINT LeftUpLeg
    {
      OFFSET 10.0615 0 0
      CHANNELS 6 Xposition Yposition Zposition Zrotation Xrotation Yrotation
      JOINT LeftLeg
      {
        OFFSET 0 -36.0896 0
        CHANNELS 6 Xposition Yposition Zposition Zrotation Xrotation Yrotation
        JOINT LeftFoot
        {
          OFFSET 0 -47.1136 0
          CHANNELS 6 Xposition Yposition Zposition Zrotation Xrotation Yrotation
          JOINT LeftToeBase
          {
            OFFSET 0 -6.53997 15.0922
            CHANNELS 6 Xposition Yposition Zposition Zrotation Xrotation Yrotation
            End Site
            {
              OFFSET 0 0 4.0246
            }
          }
        }
      }
    }
    JOINT RightUpLeg
    {
      OFFSET -10.0615 0 0
      CHANNELS 6 Xposition Yposition Zposition Zrotation Xrotation Yrotation
      JOINT RightLeg
      {
        OFFSET 0 -36.0896 0
        CHANNELS 6 Xposition Yposition Zposition Zrotation Xrotation Yrotation
        JOINT RightFoot
        {
          OFFSET 0 -47.1136 0
          CHANNELS 6 Xposition Yposition Zposition Zrotation Xrotation Yrotation
          JOINT RightToeBase
          {
            OFFSET 0 -6.53997 15.0922
            CHANNELS 6 Xposition Yposition Zposition Zrotation Xrotation Yrotation
            End Site
            {
              OFFSET 0 0 4.0246
            }
          }
        }
      }
    }
  }
}
MOTION
Frames:	11
Frame Time:	0.004
0 0 0 0 0 -0 7.24171 84.1063 -211.059 -1.37248 2.63535 2.52945 0 8.25043 0 -0.80219 -9.82886 0.026743 1.77636e-015 26.9735 0 0.656909 1.7107 0.0845001 1.77636e-015 26.8627 2.44206 8.01201 16.6826 11.0087 1.42109e-014 14.0861 -2.0123 -6.8075 4.08904 10.7737 4.03461 23.8974 -0.31355 17.0796 3.22312 3.29694 14.6104 0 0 -24.9944 3.73533 -2.85821 28.8903 -2.84217e-014 0 1.21243 1.0933 0.051417 28.8168 -2.84217e-014 -2.84217e-014 9.83006 0.930698 -1.88614 -4.01401 23.8974 -0.31355 -15.7655 1.33895 0.801502 -14.6104 -2.84217e-014 2.84217e-014 15.4394 7.74764 6.90537 -28.8903 0 2.84217e-014 -7.71363 -2.62674 1.41395 -28.8168 0 0 -3.58963 -2.4355 -3.05769 10.0615 0 -2.84217e-014 5.40137 -0.893385 -4.08602 0 -36.0896 -2.84217e-014 -4.68565 8.75323 -11.6562 7.10543e-015 -47.1136 0 4.88378 -12.1243 21.0062 0 -6.53997 15.0922 -1.49089e-016 -3.97569e-016 -0 -10.0615 0 0 -3.34328 -1.66957 2.32048 0 -36.0896 -2.84217e-014 4.8746 10.4401 3.58741 0 -47.1136 0 -4.2898 -12.7943 -12.632 0 -6.53997 15.0922 1.36664e-016 1.98785e-016 -0 
0 0 0 0 0 -0 7.24171 84.1063 -211.059 -1.37248 2.63535 2.52945 0 8.25043 0 -0.803918 -9.82886 0.026743 1.77636e-015 26.9735 0 0.655724 1.7107 0.0845001 1.77636e-015 26.8627 2.44206 8.01168 16.6948 11.0021 0 14.0861 -2.0123 -6.80479 4.07725 10.7672 4.03461 23.8974 -0.31355 17.0898 3.22312 3.29694 14.6104 0 0 -25.0167 3.76279 -2.84891 28.8903 0 2.84217e-014 1.22877 1.07457 0.047682 28.8168 0 0 9.82928 0.912918 -1.87432 -4.01401 23.8974 -0.31355 -15.7655 1.33895 0.801502 -14.6104 2.84217e-014 -2.84217e-014 15.4398 7.74414 6.90531 -28.8903 2.84217e-014 -2.84217e-014 -7.6771 -2.62403 1.41394 -28.8168 -2.84217e-014 0 -4.09796 -2.41573 -3.17473 10.0615 0 -2.84217e-014 5.40192 -0.883559 -4.09582 0 -36.0896 0 -4.68835 8.74029 -11.6557 -7.10543e-015 -47.1136 0 4.87257 -12.1212 21.0291 -7.10543e-015 -6.53997 15.0922 -1.98785e-016 7.95139e-016 -0 -10.0615 0 0 -3.34328 -1.66957 2.32048 0 -36.0896 -2.84217e-014 4.87353 10.4294 3.59694 3.55271e-015 -47.1136 0 -4.28831 -12.7878 -12.6316 -3.55271e-015 -6.53997 15.0922 1.37935e-033 1.98785e-016 -3.97569e-016 
0 0 0 0 0 -0 7.24105 84.1063 -211.063 -1.37248 2.63535 2.52945 -1.77636e-015 8.25043 0 -0.788661 -9.84 0.0267439 3.55271e-015 26.9735 0 0.626475 1.7107 0.0845001 -1.77636e-015 26.8627 2.44206 8.01576 16.6789 10.9983 0 14.0861 -2.0123 -6.80956 4.10365 10.7639 4.03461 23.8974 -0.31355 17.0962 3.22312 3.29694 14.6104 -2.84217e-014 -2.84217e-014 -25.0114 3.73767 -2.85838 28.8903 2.84217e-014 -2.84217e-014 1.22987 1.07471 0.060659 28.8168 0 0 9.82359 0.911808 -1.88913 -4.01401 23.8974 -0.31355 -15.756 1.33895 0.801502 -14.6104 0 0 15.4388 7.77311 6.90579 -28.8903 0 -2.84217e-014 -7.69246 -2.64475 1.41397 -28.8168 2.84217e-014 0 -4.14819 -2.43356 -3.20201 10.0615 -2.84217e-014 0 5.40095 -0.894692 -4.10664 -3.55271e-015 -36.0896 2.84217e-014 -4.68964 8.73408 -11.6555 -3.55271e-015 -47.1136 2.84217e-014 4.90766 -12.1077 21.0314 0 -6.53997 15.0922 -1.98785e-016 7.95139e-016 -0 -10.0615 0 2.84217e-014 -3.3431 -1.68334 2.30754 0 -36.0896 0 4.87328 10.4334 3.59696 -3.55271e-015 -47.1136 2.84217e-014 -4.27811 -12.7833 -12.6314 0 -6.53997 15.0922 -2.23633e-016 -1.98785e-016 -0 
0 0 0 0 0 -0 7.23842 84.1063 -211.065 -1.37248 2.63535 2.52945 1.77636e-015 8.25043 0 -0.792434 -9.83537 0.0267435 0 26.9735 0 0.633697 1.7107 0.0845001 -1.77636e-015 26.8627 2.44206 8.02113 16.6711 10.9969 0 14.0861 -2.0123 -6.82928 4.13209 10.7629 4.03461 23.8974 -0.31355 17.0862 3.22423 3.29695 14.6104 0 0 -25.0062 3.73708 -2.86311 28.8903 -2.84217e-014 0 1.23139 1.06925 0.058743 28.8168 2.84217e-014 0 9.84072 0.905764 -1.88296 -4.01401 23.8974 -0.31355 -15.7598 1.33895 0.801502 -14.6104 2.84217e-014 0 15.4238 7.75705 6.90553 -28.8903 2.84217e-014 0 -7.68264 -2.65097 1.41397 -28.8168 0 0 -4.14228 -2.44091 -3.1851 10.0615 -2.84217e-014 0 5.40038 -0.907137 -4.08643 0 -36.0896 0 -4.68491 8.75676 -11.6563 -3.55271e-015 -47.1136 -2.84217e-014 4.88647 -12.1156 21.0132 7.10543e-015 -6.53997 15.0922 -4.96962e-017 -7.95139e-016 -0 -10.0615 0 0 -3.34367 -1.68334 2.2882 0 -36.0896 -2.84217e-014 4.87253 10.4338 3.60093 3.55271e-015 -47.1136 0 -4.27151 -12.7774 -12.629 0 -6.53997 15.0922 -7.33018e-016 -3.97569e-016 -0 
0 0 0 0 0 -0 7.2355 84.1063 -211.067 -1.37248 2.63535 2.52945 0 8.25043 2.84217e-014 -0.792526 -9.82815 0.0267429 -1.77636e-015 26.9735 0 0.630799 1.7107 0.0845001 1.77636e-015 26.8627 2.44206 7.99657 16.6767 10.9962 -1.42109e-014 14.0861 -2.0123 -6.79621 4.12857 10.7616 4.03461 23.8974 -0.31355 17.0819 3.2267 3.29696 14.6104 -5.68434e-014 0 -25.0027 3.73697 -2.87185 28.8903 -2.84217e-014 0 1.23271 1.06547 0.064484 28.8168 0 0 9.86065 0.902133 -1.88628 -4.01401 23.8974 -0.31355 -15.7646 1.33895 0.801502 -14.6104 0 0 15.4248 7.80176 6.90627 -28.8903 0 0 -7.70454 -2.69827 1.41403 -28.8168 -2.84217e-014 -2.84217e-014 -4.16859 -2.48658 -3.20559 10.0615 0 0 5.40081 -0.894888 -4.11469 0 -36.0896 2.84217e-014 -4.68819 8.74359 -11.6525 -1.06581e-014 -47.1136 0 4.88358 -12.1026 21.0435 0 -6.53997 15.0922 -2.98177e-016 -3.97569e-016 -0 -10.0615 0 2.84217e-014 -3.34309 -1.67199 2.3237 1.77636e-015 -36.0896 0 4.87279 10.4233 3.60309 -3.55271e-015 -47.1136 0 -4.3064 -12.7724 -12.6433 0 -6.53997 15.0922 -9.93923e-017 0 -0 
0 0 0 0 0 -0 7.23251 84.1063 -211.069 -1.37248 2.63535 2.52945 -1.77636e-015 8.25043 -2.84217e-014 -0.792599 -9.82483 0.0267427 0 26.9735 0 0.62677 1.70847 0.0845 1.77636e-015 26.8627 2.44206 7.99707 16.6515 10.9938 0 14.0861 -2.0123 -6.79696 4.18417 10.7613 4.03461 23.8974 -0.31355 17.0931 3.22958 3.28411 14.6104 2.84217e-014 0 -25.0242 3.73514 -2.85635 28.8903 0 0 1.23344 1.07567 0.047472 28.8168 -2.84217e-014 0 9.87782 0.91874 -1.81042 -4.01401 23.8974 -0.31355 -15.776 1.33896 0.797432 -14.6104 0 2.84217e-014 15.428 7.78431 6.90598 -28.8903 -2.84217e-014 0 -7.7 -2.70505 1.41385 -28.8168 0 0 -4.15726 -2.49289 -3.22745 10.0615 0 0 5.40075 -0.901872 -4.08668 0 -36.0896 0 -4.68249 8.75327 -11.676 3.55271e-015 -47.1136 2.84217e-014 4.89173 -12.1013 21.0279 7.10543e-015 -6.53997 15.0922 3.47873e-016 3.97569e-016 2.38542e-015 -10.0615 0 0 -3.34327 -1.67425 2.31416 -1.77636e-015 -36.0896 0 4.87447 10.4258 3.59298 0 -47.1136 0 -4.28162 -12.7795 -12.6271 3.55271e-015 -6.53997 15.0922 5.8393e-016 5.96354e-016 -0 
0 0 0 0 0 -0 7.22972 84.1063 -211.07 -1.37248 2.63535 2.52945 0 8.25043 2.84217e-014 -0.792654 -9.82904 0.026743 1.77636e-015 26.9735 0 0.625411 1.70695 0.085991 3.55271e-015 26.8627 2.44206 8.00681 16.6676 10.9937 0 14.0861 -2.0123 -6.81978 4.16748 10.76 4.03461 23.8974 -0.31355 17.0809 3.23202 3.28603 14.6104 2.84217e-014 0 -25.0033 3.72376 -2.87273 28.8903 0 0 1.22813 1.06549 0.066642 28.8168 0 -2.84217e-014 9.85977 0.90096 -1.89947 -4.01401 23.8974 -0.31355 -15.7795 1.33896 0.794621 -14.6104 0 0 15.426 7.80416 6.90631 -28.8903 2.84217e-014 2.84217e-014 -7.66952 -2.70998 1.41393 -28.8168 0 -2.84217e-014 -4.77242 -2.47301 -3.41421 10.0615 -1.42109e-014 0 5.41421 -0.899241 -4.11064 -3.55271e-015 -36.0896 0 -4.6913 8.73581 -11.6429 0 -47.1136 -2.84217e-014 4.89035 -12.0915 21.0228 0 -6.53997 15.0922 1.49089e-016 -3.97569e-016 -0 -10.0615 1.42109e-014 2.84217e-014 -3.34336 -1.67866 2.30498 -1.77636e-015 -36.0896 2.84217e-014 4.87483 10.4209 3.59267 -3.55271e-015 -47.1136 0 -4.29169 -12.7747 -12.6198 0 -6.53997 15.0922 5.8393e-016 -1.98785e-016 -0 
0 0 0 0 0 -0 7.22739 84.1064 -211.072 -1.37207 2.62614 2.52943 0 8.25043 0 -0.792389 -9.81452 0.0285853 0 26.9735 0 0.624626 1.70855 0.0873593 1.77636e-015 26.8627 2.44206 8.01794 16.6697 10.9929 0 14.0861 -2.0123 -6.83997 4.18144 10.7591 4.03461 23.8974 -0.31355 17.0885 3.23333 3.28827 14.6104 -2.84217e-014 -2.84217e-014 -25.0167 3.72917 -2.87098 28.8903 0 0 1.24514 1.05711 0.05084 28.8168 0 0 9.88329 0.893269 -1.88896 -4.01401 23.8974 -0.31355 -15.7808 1.33896 0.793739 -14.6104 0 0 15.4235 7.82358 6.90663 -28.8903 2.84217e-014 2.84217e-014 -7.68033 -2.73112 1.41349 -28.8168 0 -2.84217e-014 -4.80736 -2.49244 -3.44001 10.0615 0 0 5.41646 -0.89497 -4.10413 0 -36.0896 0 -4.68617 8.74204 -11.6672 3.55271e-015 -47.1136 0 4.88225 -12.0887 21.033 0 -6.53997 15.0922 1.49089e-016 0 -0 -10.0615 1.42109e-014 0 -3.34632 -1.66642 2.33672 -1.77636e-015 -36.0896 0 4.87724 10.4137 3.58183 0 -47.1136 2.84217e-014 -4.32217 -12.7623 -12.6369 0 -6.53997 15.0922 -8.44835e-016 3.97569e-016 -0 
0 0 0 0 0 -0 7.22534 84.1066 -211.073 -1.3721 2.62664 2.52944 -1.77636e-015 8.25043 0 -0.792082 -9.81894 0.0305384 3.55271e-015 26.9735 0 0.622716 1.70881 0.0887963 0 26.8627 2.44206 8.00307 16.6503 10.9908 0 14.0861 -2.0123 -6.82405 4.21282 10.7584 4.03461 23.8974 -0.31355 17.0772 3.22674 3.28604 14.6104 0 0 -25.0012 3.69648 -2.8702 28.8903 0 0 1.22705 1.07599 0.065827 28.8168 2.84217e-014 0 9.85494 0.910273 -1.91482 -4.01401 23.8974 -0.31355 -15.7945 1.33896 0.792931 -14.6104 5.68434e-014 -2.84217e-014 15.4218 7.83244 6.90678 -28.8903 2.84217e-014 -2.84217e-014 -7.7278 -2.77668 1.41172 -28.8168 0 0 -4.24273 -2.55684 -3.36762 10.0615 -2.84217e-014 0 5.4127 -0.892544 -4.12368 3.55271e-015 -36.0896 2.84217e-014 -4.69194 8.74307 -11.6323 0 -47.1136 -2.84217e-014 4.86595 -12.0889 21.0232 0 -6.53997 15.0922 -9.93923e-017 0 -0 -10.0615 0 0 -3.34477 -1.66585 2.32328 0 -36.0896 0 4.87727 10.4106 3.58269 -3.55271e-015 -47.1136 2.84217e-014 -4.27821 -12.7623 -12.6359 0 -6.53997 15.0922 1.98785e-016 3.97569e-016 -1.19271e-015 
0 0 0 0 0 -0 7.2236 84.1068 -211.074 -1.37206 2.62577 2.52943 -1.77636e-015 8.25043 0 -0.79181 -9.80589 0.0322713 1.77636e-015 26.9735 0 0.614634 1.69745 0.0902226 0 26.8627 2.44206 8.01349 16.6622 10.9907 0 14.0861 -2.0123 -6.84272 4.22161 10.7574 4.03461 23.8974 -0.31355 17.0797 3.21938 3.27918 14.6104 0 0 -25.0051 3.72993 -2.86943 28.8903 2.84217e-014 0 1.235 1.09459 0.041301 28.8168 0 2.84217e-014 9.86383 0.935602 -1.83721 -4.01401 23.8974 -0.31355 -15.7951 1.33896 0.792189 -14.6104 -2.84217e-014 2.84217e-014 15.4144 7.84935 6.90706 -28.8903 0 2.84217e-014 -7.68669 -2.77277 1.40022 -28.8168 5.68434e-014 -2.84217e-014 -4.84763 -2.5329 -3.45011 10.0615 -1.42109e-014 0 5.4101 -0.894133 -4.10999 0 -36.0896 2.84217e-014 -4.68921 8.74142 -11.654 -3.55271e-015 -47.1136 0 4.88243 -12.0889 21.0226 0 -6.53997 15.0922 -3.47873e-016 0 7.95139e-016 -10.0615 0 0 -3.34231 -1.65921 2.32107 -1.77636e-015 -36.0896 -2.84217e-014 4.87994 10.4108 3.56794 -3.55271e-015 -47.1136 0 -4.30158 -12.7636 -12.6238 0 -6.53997 15.0922 7.45443e-017 0 -0 
0 0 0 0 0 -0 7.22103 84.107 -211.076 -1.37202 2.62486 2.52943 0 8.25043 0 -0.791612 -9.80564 0.033459 0 26.9735 0 0.605067 1.6954 0.0915602 1.77636e-015 26.8627 2.44206 8.01798 16.6616 10.99 0 14.0861 -2.0123 -6.84491 4.2348 10.757 4.03461 23.8974 -0.31355 17.0867 3.21608 3.27263 14.6104 -2.84217e-014 0 -25.0091 3.71015 -2.86848 28.8903 2.84217e-014 0 1.23427 1.10241 0.047427 28.8168 0 0 9.86241 0.942121 -1.8524 -4.01401 23.8974 -0.31355 -15.7945 1.33896 0.79151 -14.6104 0 0 15.4062 7.82235 6.90661 -28.8903 0 0 -7.71207 -2.78929 1.40778 -28.8168 -2.84217e-014 2.84217e-014 -4.35581 -2.56554 -3.39487 10.0615 -1.42109e-014 0 5.41711 -0.897579 -4.11196 3.55271e-015 -36.0896 2.84217e-014 -4.69013 8.73993 -11.6524 -3.55271e-015 -47.1136 0 4.88662 -12.0886 21.0275 7.10543e-015 -6.53997 15.0922 3.47873e-016 -3.97569e-016 7.95139e-016 -10.0615 0 2.84217e-014 -3.33902 -1.65709 2.33788 1.77636e-015 -36.0896 0 4.88426 10.4113 3.54395 0 -47.1136 0 -4.29891 -12.7654 -12.61 0 -6.53997 15.0922 -1.61513e-016 0 -1.19271e-015 
